<?xml version="1.0" encoding="UTF-8"?>
<!DOCTYPE svg PUBLIC "-//W3C//DTD SVG 1.1//EN" "http://www.w3.org/Graphics/SVG/1.1/DTD/svg11.dtd">
<svg xmlns="http://www.w3.org/2000/svg" xmlns:xlink="http://www.w3.org/1999/xlink" version="1.1" x="0" y="0" width="70" height="70">
  <desc>Feynman diagram generated by jQuery.Feyn</desc>
  <g fill="none" stroke="blue" stroke-width="3" stroke-linecap="round">
    <ellipse cx="30" cy="0" rx="30" ry="27" transform="translate(5,35)"/>
    <g fill="blue" stroke-width="0">
      <polygon points="0,0 -6,7.5 9,0 -6,-7.5" transform="translate(35,8)"/>
      <polygon points="0,0 -6,7.5 9,0 -6,-7.5" transform="translate(35,62) rotate(180)"/>
    </g>
  </g>
  <g fill="none" stroke="orange" stroke-width="3" stroke-linecap="round">
    <path d="M 0,0 C 2,-3.142 3,-5 5,-5 S 8,-3.142 10,0 S 13,5 15,5 S 18,3.142 20,0 C 22,-3.142 23,-5 25,-5 S 28,-3.142 30,0 S 33,5 35,5 S 38,3.142 40,0 C 42,-3.142 43,-5 45,-5 S 48,-3.142 50,0 S 53,5 55,5 S 58,3.142 60,0" transform="translate(5,35)"/>
  </g>
  <g fill="maroon" stroke="maroon" stroke-width="1">
    <circle cx="5" cy="35" r="4"/>
    <circle cx="65" cy="35" r="4"/>
  </g>
</svg>

