<?xml version="1.0" encoding="UTF-8"?>
<!DOCTYPE svg PUBLIC "-//W3C//DTD SVG 1.1//EN" "http://www.w3.org/Graphics/SVG/1.1/DTD/svg11.dtd">
<svg xmlns="http://www.w3.org/2000/svg" xmlns:xlink="http://www.w3.org/1999/xlink" version="1.1" x="0" y="0" width="180" height="180">
  <desc>An octahedron as the centers of the faces of a cube</desc>
  <g stroke="black" stroke-width="1.6" stroke-linecap="round">
    <line x1="50" y1="10" x2="170" y2="10"/>
    <line x1="170" y1="10" x2="130" y2="50"/>
    <line x1="130" y1="50" x2="10" y2="50"/>
    <line x1="10" y1="50" x2="50" y2="10"/>
    <line x1="50" y1="10" x2="50" y2="130"/>
    <line x1="50" y1="130" x2="10" y2="170"/>
    <line x1="10" y1="170" x2="10" y2="50"/>
    <line x1="130" y1="50" x2="130" y2="170"/>
    <line x1="130" y1="170" x2="170" y2="130"/>
    <line x1="170" y1="130" x2="170" y2="10"/>
    <line x1="10" y1="170" x2="130" y2="170"/>
    <line x1="50" y1="130" x2="170" y2="130"/>
  </g>
  <g stroke="black" stroke-width="1.6" stroke-linecap="round" stroke-dasharray="5 5" stroke-dashoffset="2">
    <line x1="90" y1="30" x2="30" y2="90"/>
    <line x1="30" y1="90" x2="70" y2="110"/>
    <line x1="70" y1="110" x2="150" y2="90"/>
    <line x1="150" y1="90" x2="110" y2="70"/>
    <line x1="110" y1="70" x2="90" y2="30"/>
    <line x1="90" y1="30" x2="70" y2="110"/>
    <line x1="70" y1="110" x2="90" y2="150"/>
    <line x1="90" y1="150" x2="30" y2="90"/>
    <line x1="30" y1="90" x2="110" y2="70"/>
    <line x1="110" y1="70" x2="90" y2="150"/>
    <line x1="90" y1="150" x2="150" y2="90"/>
    <line x1="150" y1="90" x2="90" y2="30"/>
  </g>
  <g stroke="black" stroke-width="1" fill="black">
    <circle cx="50" cy="10" r="4"/>
    <circle cx="170" cy="10" r="4"/>
    <circle cx="130" cy="50" r="4"/>
    <circle cx="10" cy="50" r="4"/>
    <circle cx="50" cy="130" r="4"/>
    <circle cx="10" cy="170" r="4"/>
    <circle cx="130" cy="170" r="4"/>
    <circle cx="170" cy="130" r="4"/>
    <circle cx="90" cy="30" r="4"/>
    <circle cx="30" cy="90" r="4"/>
    <circle cx="70" cy="110" r="4"/>
    <circle cx="150" cy="90" r="4"/>
    <circle cx="110" cy="70" r="4"/>
    <circle cx="90" cy="150" r="4"/>
  </g>
</svg>

